inDegrees=no
num_controls=7
num_derivatives=13
num_iterations=86
num_multipliers=7
num_parameters=0
num_slacks=7
num_states=26
objective=0.339342
objective_accelerations=0.028543
objective_balance=0.000979
objective_effort=0.021822
objective_height=0.286251
objective_ligament=0.001747
solver_duration=887.807200
status=Solve_Succeeded
success=true
DataType=double
version=3
OpenSimVersion=4.5
endheader
time	/jointset/ground_pelvis/pelvis_tilt/value	/jointset/ground_pelvis/pelvis_tx/value	/jointset/ground_pelvis/pelvis_ty/value	/jointset/hip_r/hip_flexion_r/value	/jointset/hip_r/hip_adduction_r/value	/jointset/hip_r/hip_rotation_r/value	/jointset/back/lumbar_extension/value	/jointset/patellofemoral_r/patellar_flexion_r/value	/jointset/knee_r/knee_flexion_r/value	/jointset/knee_r/knee_adduction_r/value	/jointset/knee_r/knee_rotation_r/value	/jointset/ankle_r/ankle_angle_r/value	/jointset/subtalar_r/subtalar_angle_r/value	/jointset/ground_pelvis/pelvis_tilt/speed	/jointset/ground_pelvis/pelvis_tx/speed	/jointset/ground_pelvis/pelvis_ty/speed	/jointset/hip_r/hip_flexion_r/speed	/jointset/hip_r/hip_adduction_r/speed	/jointset/hip_r/hip_rotation_r/speed	/jointset/back/lumbar_extension/speed	/jointset/patellofemoral_r/patellar_flexion_r/speed	/jointset/knee_r/knee_flexion_r/speed	/jointset/knee_r/knee_adduction_r/speed	/jointset/knee_r/knee_rotation_r/speed	/jointset/ankle_r/ankle_angle_r/speed	/jointset/subtalar_r/subtalar_angle_r/speed	/forceset/tau_hip_flexion_r	/forceset/tau_hip_adduction_r	/forceset/tau_hip_rotation_r	/forceset/tau_knee_flexion_r	/forceset/tau_ankle_angle_r	/forceset/tau_subtalar_angle_r	/forceset/tau_lumbar_extension	lambda_cid13_p0	lambda_cid14_p0	lambda_cid14_p1	lambda_cid14_p2	lambda_cid14_p3	lambda_cid14_p4	lambda_cid14_p5	/jointset/ground_pelvis/pelvis_tilt/accel	/jointset/ground_pelvis/pelvis_tx/accel	/jointset/ground_pelvis/pelvis_ty/accel	/jointset/hip_r/hip_flexion_r/accel	/jointset/hip_r/hip_adduction_r/accel	/jointset/hip_r/hip_rotation_r/accel	/jointset/back/lumbar_extension/accel	/jointset/patellofemoral_r/patellar_flexion_r/accel	/jointset/knee_r/knee_flexion_r/accel	/jointset/knee_r/knee_adduction_r/accel	/jointset/knee_r/knee_rotation_r/accel	/jointset/ankle_r/ankle_angle_r/accel	/jointset/subtalar_r/subtalar_angle_r/accel	gamma_cid13_p0	gamma_cid14_p0	gamma_cid14_p1	gamma_cid14_p2	gamma_cid14_p3	gamma_cid14_p4	gamma_cid14_p5
0	-0.01148970965990829	0.1340366697462445	0.9325502455826119	0.1934211968871041	-0.2373492817034853	-0.2360750085858001	-0.2903787966825928	0.2311786273363287	0.2311786273363406	0.1528229025906261	0.1734323897187261	0.089344008118978	0.05243756010350176	0	0	0	0	0	0	0	0	0	0	0	0	0	0.09274618318267369	-0.04969558977603084	0.006054099271149247	-0.2431983378133642	0.1298952963007743	-0.1193769698870027	-0.01280083585763435	-30.00493327922315	-6.224350706668658	-47.70671649285785	2.055438480334585	-5.713956489934927	-618.3911108540573	26.21527314870683	-1.181748229642763	-1.390852966532007	-0.6588246974700867	7.725823605648676	0.06833735028487087	2.021088476197669	-5.556072130298669	8.479912182070761	8.479912182070855	-2.303709009781621	0.2596112588537555	2.562585021645283	0.7758847207879488	2.801880016184657e-08	2.983931940345096e-08	-1.813906991871405e-07	1.477698110910443e-07	-5.131805848678279e-09	1.567818663782988e-07	-1.601508239323708e-07
0.01	-0.01154382947630107	0.1339693692116723	0.9325183637483226	0.1937954187888845	-0.2373435833549016	-0.2359716927462188	-0.2906582304462126	0.2315942672158892	0.2315942672158841	0.1527052889212132	0.1734394882058848	0.08947209599249581	0.05247912899315956	-0.01072976191459074	-0.0132530913305184	-0.006347390082775107	0.07426204290710339	0.001159746380179716	0.02066838421769429	-0.05562446409583528	0.0827042563955835	0.08270425639558376	-0.02344266768953222	0.001272765546586561	0.02568184806241891	0.00835788338053498	0.09432548500725731	-0.06760059899315157	0.005617318610918641	-0.251078089727569	0.1398644089131655	-0.1080895472405463	-0.01281770640658377	-30.00888043233379	-2.457175405278541	-42.08099622715556	1.0854548889623	-10.31592735551914	-619.8131222997602	38.78939757979435	-1.004462204524683	-1.261485904216767	-0.6183182911055478	7.189044339844557	0.1427993003608156	2.090525946459818	-5.526290255800231	8.102118836824664	8.102118836824532	-2.352552052652628	0.0390988353404444	2.580630506050162	0.8723445578487188	5.90711979592279e-08	2.984720465337414e-08	-3.780738559841365e-07	2.584151892855631e-07	2.18930413419885e-08	6.090573729177469e-08	-3.326011725522528e-07
0.02	-0.01170242131824808	0.1337757480262147	0.9324238835877221	0.1948947910610944	-0.2373256863388213	-0.2356615305540876	-0.291486040192095	0.232824236953114	0.2328242369531126	0.1523556472940565	0.1734549122750739	0.08985893150814361	0.05260559759885517	-0.02089440511556752	-0.02526413017707674	-0.01251966526229923	0.1450300740783293	0.002439733499421624	0.04136927051157182	-0.1096751964546901	0.1628659715320706	0.1628659715320704	-0.04640559154361533	0.001665116404341804	0.05174952842524722	0.01697994320757333	0.09590478683205379	-0.08550560821030542	0.005180537950744809	-0.2589578416416523	0.1498335215255896	-0.09680212459412238	-0.01283457695538261	-30.02016213727932	1.375693020073947	-36.46428954495385	0.1403440337541109	-14.88513174130047	-620.1701759381405	51.09488704464604	-1.068724486920319	-1.142442469739684	-0.6238017168199085	7.027021258473144	0.09238549809733587	2.027588891434318	-5.241325782902809	7.971403930251424	7.971403930251353	-2.207760242691848	0.08352832108744142	2.639751481727505	0.8287200100887533	9.012359575660924e-08	2.985508990329732e-08	-5.747570127811324e-07	3.690605674800819e-07	4.891788853265528e-08	-3.497039179474938e-08	-5.050515211721347e-07
0.03	-0.01196079060448359	0.1334664446435707	0.9322682202089509	0.1966878267178615	-0.2372950462995289	-0.2351467934292211	-0.2928449080013347	0.2348440118440068	0.234844011844	0.1517798736473095	0.1734728912772589	0.09050606917061124	0.05281821031491777	-0.03074976243604538	-0.03656689077676447	-0.01861184644795942	0.2132998365875237	0.003655860400148741	0.06144750621261625	-0.1617114474256146	0.2407285923152183	0.2407285923152183	-0.06857043673822789	0.001953730045647929	0.07751243374218458	0.02546144309394339	0.08998499802862747	-0.08282664342030742	0.005983865804577931	-0.251341690154562	0.1387956002098898	-0.09400413636018604	-0.008127168334293782	-30.0381324205365	-2.057517763563227	-35.7416748086836	-0.09888387734127646	-12.77548359909169	-620.7729409523707	51.43577362873024	-0.9394814806872258	-1.119734625308654	-0.6017590943478398	6.685375683910765	0.1313540986385331	1.97841917280021	-5.126737059650266	7.639610852574992	7.639610852574998	-2.19409372988233	0.005058153092119479	2.519736799679382	0.8456445144444967	9.58902785131979e-08	2.906464959331664e-08	-5.911579119730598e-07	3.911972139377116e-07	5.34459614377854e-08	-8.638527866150735e-08	-5.273943236222043e-07
0.04	-0.0123168214891131	0.1330450053008855	0.9320516684633423	0.1991552443870818	-0.2372532194287154	-0.2344351782946745	-0.2947125307813726	0.2376315968827591	0.2376315968827581	0.1509878021342289	0.1734944624693775	0.09140587123484711	0.05311319393715077	-0.04042672479963877	-0.04769132218532295	-0.02469733862979354	0.2799064765674268	0.004677099803991827	0.0807448724480902	-0.2114261906151049	0.31642800110751	0.3164280011075106	-0.08966516481430832	0.002383554384544527	0.102282408779234	0.03345412444165611	0.08406520922513348	-0.08014767863028049	0.006787193658539252	-0.2437255386674949	0.1277576788942001	-0.09120614812621125	-0.003419759713273122	-30.06200553149577	-5.430083128287077	-35.0274446243	-0.3150683691059462	-10.6413387934365	-620.3973715826662	51.52613604581734	-1.033045495543755	-1.106776631513562	-0.6224639160547081	6.694396752614853	0.05340799872056129	1.871414998320226	-4.777024226616207	7.538761532080155	7.538761532080155	-1.993736818985481	0.1117704606054816	2.441165425750211	0.7309563023574082	1.011356063204919e-07	2.82577489625132e-08	-6.03841651214367e-07	4.115089380914881e-07	5.751018332671888e-08	-1.368834388845588e-07	-5.466421251203189e-07
0.05	-0.01276895897473454	0.1325135332913754	0.9317741449430911	0.2022803812281402	-0.2372020692444398	-0.2335344388821118	-0.2970660752175955	0.2411655013083085	0.2411655013082952	0.1499900279584608	0.1735207985031754	0.09254887396281541	0.05348591702097504	-0.04996513832355282	-0.05854065169971528	-0.03081545537560375	0.344804979747173	0.005551970958813426	0.09931403685125238	-0.2589650469480166	0.3899872263767332	0.3899872263767356	-0.1097635902730256	0.002830754906804058	0.1262023542190596	0.04106339844966102	0.0797375661261088	-0.07701407783859714	0.007266916370911707	-0.240186800894241	0.1228692410833306	-0.08996540017837538	0.0002121038856809988	-30.09101164998991	-6.917326040170485	-34.75636411873161	-0.3498669442992961	-10.08016265273966	-620.3358818171062	50.94569997053253	-0.9088842724760281	-1.064635373308519	-0.6077268319056114	6.340197098272386	0.1043775784049803	1.836403522753192	-4.694668884953464	7.209634111289517	7.209634111289704	-1.999034928920965	0.00334061290034868	2.350054661690813	0.7718029105161601	1.002274569658323e-07	2.391011751538065e-08	-5.824020670560005e-07	4.01780490825223e-07	6.003169007293814e-08	-1.903281413609795e-07	-5.314752595302199e-07
